<svg width="17" height="17" viewBox="0 0 17 17" fill="none" xmlns="http://www.w3.org/2000/svg">
<path id="Vector" opacity="0.3" d="M10.4636 12.9937L9.36604 14.0994V9.3448C9.36604 9.11922 9.27641 8.90288 9.11685 8.74337C8.95729 8.58386 8.74089 8.49425 8.51524 8.49425C8.28959 8.49425 8.07318 8.58386 7.91363 8.74337C7.75407 8.90288 7.66443 9.11922 7.66443 9.3448V14.0994L6.56689 12.9937C6.48756 12.9144 6.39339 12.8515 6.28974 12.8086C6.18609 12.7656 6.07501 12.7435 5.96282 12.7435C5.85063 12.7435 5.73954 12.7656 5.6359 12.8086C5.53225 12.8515 5.43808 12.9144 5.35875 12.9937C5.27942 13.073 5.21649 13.1671 5.17356 13.2708C5.13063 13.3744 5.10853 13.4854 5.10853 13.5976C5.10853 13.7097 5.13063 13.8208 5.17356 13.9244C5.21649 14.028 5.27942 14.1222 5.35875 14.2015L7.91117 16.7531C7.99208 16.8306 8.08749 16.8913 8.19193 16.9318C8.29377 16.9768 8.40389 17 8.51524 17C8.62658 17 8.7367 16.9768 8.83854 16.9318C8.94298 16.8913 9.0384 16.8306 9.11931 16.7531L11.6717 14.2015C11.8319 14.0413 11.9219 13.8241 11.9219 13.5976C11.9219 13.3711 11.8319 13.1539 11.6717 12.9937C11.5115 12.8335 11.2942 12.7435 11.0677 12.7435C10.8411 12.7435 10.6238 12.8335 10.4636 12.9937ZM13.9774 3.57804C13.4576 2.38386 12.5604 1.39303 11.4234 0.757367C10.2863 0.121704 8.97217 -0.123719 7.68227 0.0587059C6.39237 0.241131 5.19788 0.841339 4.28184 1.76736C3.36581 2.69338 2.77875 3.89412 2.61064 5.18559C1.79947 5.37979 1.08789 5.86504 0.611026 6.54919C0.134163 7.23334 -0.0747695 8.06874 0.0239067 8.89675C0.122583 9.72475 0.521995 10.4877 1.14629 11.0407C1.77059 11.5937 2.5763 11.8982 3.4104 11.8965C3.63605 11.8965 3.85245 11.8069 4.01201 11.6473C4.17157 11.4878 4.26121 11.2715 4.26121 11.0459C4.26121 10.8203 4.17157 10.604 4.01201 10.4445C3.85245 10.285 3.63605 10.1954 3.4104 10.1954C2.95911 10.1954 2.52629 10.0161 2.20718 9.69712C1.88807 9.3781 1.70879 8.94541 1.70879 8.49425C1.70879 8.04309 1.88807 7.6104 2.20718 7.29138C2.52629 6.97236 2.95911 6.79314 3.4104 6.79314C3.63605 6.79314 3.85245 6.70353 4.01201 6.54402C4.17157 6.38451 4.26121 6.16816 4.26121 5.94258C4.26338 4.93661 4.62219 3.96398 5.2739 3.19749C5.9256 2.43099 6.828 1.92027 7.82077 1.75604C8.81354 1.59182 9.8324 1.78474 10.6963 2.30051C11.5603 2.81629 12.2134 3.62154 12.5396 4.57319C12.5882 4.71935 12.6756 4.84956 12.7925 4.94993C12.9094 5.0503 13.0513 5.11705 13.2032 5.14306C13.7699 5.25012 14.2836 5.54589 14.6606 5.98216C15.0377 6.41844 15.2558 6.96951 15.2795 7.54558C15.3032 8.12164 15.131 8.68875 14.791 9.15448C14.4511 9.62021 13.9634 9.95712 13.4074 10.1103C13.299 10.1382 13.1972 10.1872 13.1077 10.2545C13.0183 10.3217 12.943 10.406 12.8861 10.5023C12.8292 10.5987 12.7919 10.7053 12.7762 10.8161C12.7605 10.9269 12.7669 11.0396 12.7948 11.148C12.8227 11.2563 12.8717 11.3581 12.939 11.4475C13.0063 11.5369 13.0905 11.6122 13.1869 11.6691C13.2833 11.726 13.3899 11.7633 13.5008 11.779C13.6116 11.7946 13.7244 11.7883 13.8328 11.7604C14.7282 11.5239 15.5219 11.0017 16.0934 10.2732C16.6649 9.54464 16.983 8.64957 16.9993 7.72388C17.0157 6.79818 16.7294 5.89244 16.184 5.14418C15.6386 4.39593 14.8639 3.84605 13.9774 3.57804Z" fill="white"/>
</svg>
