<svg width="15" height="15" viewBox="0 0 15 15" fill="none" xmlns="http://www.w3.org/2000/svg">
<path id="Vector" opacity="0.3" d="M5.0325 4.27983L6.75 2.5544V9.74869C6.75 9.94765 6.82902 10.1385 6.96967 10.2792C7.11032 10.4198 7.30109 10.4989 7.5 10.4989C7.69891 10.4989 7.88968 10.4198 8.03033 10.2792C8.17098 10.1385 8.25 9.94765 8.25 9.74869V2.5544L9.9675 4.27983C10.0372 4.35014 10.1202 4.40595 10.2116 4.44404C10.303 4.48212 10.401 4.50173 10.5 4.50173C10.599 4.50173 10.697 4.48212 10.7884 4.44404C10.8798 4.40595 10.9628 4.35014 11.0325 4.27983C11.1028 4.21009 11.1586 4.12712 11.1967 4.0357C11.2347 3.94428 11.2543 3.84623 11.2543 3.74719C11.2543 3.64816 11.2347 3.55011 11.1967 3.45869C11.1586 3.36727 11.1028 3.2843 11.0325 3.21456L8.0325 0.213813C7.96117 0.145516 7.87706 0.0919789 7.785 0.0562742C7.6024 -0.0187581 7.3976 -0.0187581 7.215 0.0562742C7.12294 0.0919789 7.03883 0.145516 6.9675 0.213813L3.9675 3.21456C3.89757 3.28451 3.8421 3.36755 3.80426 3.45894C3.76641 3.55033 3.74693 3.64828 3.74693 3.74719C3.74693 3.84611 3.76641 3.94406 3.80426 4.03545C3.8421 4.12684 3.89757 4.20988 3.9675 4.27983C4.03743 4.34977 4.12045 4.40526 4.21181 4.44311C4.30318 4.48097 4.40111 4.50045 4.5 4.50045C4.59889 4.50045 4.69682 4.48097 4.78819 4.44311C4.87955 4.40526 4.96257 4.34977 5.0325 4.27983ZM14.25 7.49813C14.0511 7.49813 13.8603 7.57717 13.7197 7.71785C13.579 7.85854 13.5 8.04935 13.5 8.24832V12.7494C13.5 12.9484 13.421 13.1392 13.2803 13.2799C13.1397 13.4206 12.9489 13.4996 12.75 13.4996H2.25C2.05109 13.4996 1.86032 13.4206 1.71967 13.2799C1.57902 13.1392 1.5 12.9484 1.5 12.7494V8.24832C1.5 8.04935 1.42098 7.85854 1.28033 7.71785C1.13968 7.57717 0.948912 7.49813 0.75 7.49813C0.551088 7.49813 0.360322 7.57717 0.21967 7.71785C0.0790176 7.85854 0 8.04935 0 8.24832V12.7494C0 13.3463 0.237053 13.9188 0.65901 14.3408C1.08097 14.7629 1.65326 15 2.25 15H12.75C13.3467 15 13.919 14.7629 14.341 14.3408C14.7629 13.9188 15 13.3463 15 12.7494V8.24832C15 8.04935 14.921 7.85854 14.7803 7.71785C14.6397 7.57717 14.4489 7.49813 14.25 7.49813Z" fill="white"/>
</svg>
