<svg width="16" height="17" viewBox="0 0 16 17" fill="none" xmlns="http://www.w3.org/2000/svg">
<path id="Vector" opacity="0.3" d="M6.34552 13.02L4.91855 14.4052C4.54437 14.779 4.03688 14.989 3.50771 14.989C2.97854 14.989 2.47104 14.779 2.09686 14.4052C1.72268 14.0314 1.51247 13.5244 1.51247 12.9958C1.51247 12.4672 1.72268 11.9602 2.09686 11.5864L5.757 7.92184C6.11625 7.56179 6.6003 7.35346 7.109 7.33997C7.6177 7.32648 8.11213 7.50885 8.49 7.84936L8.58675 7.9299C8.73963 8.07942 8.9457 8.16215 9.15964 8.15988C9.37357 8.15762 9.57784 8.07054 9.72752 7.91782C9.87719 7.76509 9.96 7.55922 9.95773 7.3455C9.95546 7.13178 9.8683 6.92771 9.71542 6.77819C9.66992 6.71942 9.62149 6.66297 9.57031 6.60906C8.8821 6.0109 7.99204 5.69643 7.08042 5.72933C6.1688 5.76223 5.30378 6.14004 4.66057 6.78624L0.952062 10.4508C0.321904 11.136 -0.0189047 12.0379 0.000810016 12.9682C0.0205247 13.8985 0.399238 14.7852 1.05786 15.4432C1.71648 16.1012 2.60409 16.4795 3.53532 16.4992C4.46654 16.5189 5.36938 16.1784 6.05529 15.5489L7.45001 14.1878C7.58772 14.0377 7.66342 13.8411 7.66189 13.6375C7.66035 13.4339 7.58168 13.2384 7.44171 13.0904C7.30175 12.9425 7.11087 12.8529 6.90749 12.8398C6.70411 12.8268 6.50332 12.8911 6.34552 13.02ZM14.9638 1.55121C14.2856 0.877904 13.3683 0.5 12.4122 0.5C11.456 0.5 10.5387 0.877904 9.86054 1.55121L8.46582 2.91232C8.32811 3.0624 8.2524 3.25902 8.25394 3.46261C8.25548 3.6662 8.33415 3.86166 8.47411 4.00965C8.61408 4.15764 8.80495 4.24718 9.00834 4.26026C9.21172 4.27333 9.41251 4.20898 9.57031 4.08013L10.965 2.69486C11.3392 2.32105 11.8467 2.11105 12.3759 2.11105C12.905 2.11105 13.4125 2.32105 13.7867 2.69486C14.1609 3.06866 14.3711 3.57565 14.3711 4.10429C14.3711 4.63293 14.1609 5.13992 13.7867 5.51373L10.1266 9.17825C9.76733 9.53831 9.28328 9.74663 8.77458 9.76013C8.26588 9.77362 7.77144 9.59125 7.39358 9.25074L7.29683 9.1702C7.14395 9.02068 6.93788 8.93795 6.72394 8.94021C6.51001 8.94248 6.30574 9.02955 6.15606 9.18228C6.00639 9.33501 5.92358 9.54087 5.92585 9.7546C5.92812 9.96832 6.01528 10.1724 6.16816 10.3219C6.22672 10.3817 6.28862 10.4382 6.35358 10.491C7.04262 11.0874 7.9323 11.4007 8.84336 11.3678C9.75442 11.3349 10.6192 10.9583 11.2633 10.3139L14.9315 6.64933C15.6098 5.97608 15.9939 5.06209 15.9999 4.10691C16.006 3.15173 15.6335 2.23296 14.9638 1.55121Z" fill="white"/>
</svg>
