<svg width="20" height="20" viewBox="0 0 20 20" fill="none" xmlns="http://www.w3.org/2000/svg">
<path id="Vector" opacity="0.3" d="M10 0C4.48602 0 0 4.48602 0 10C0 15.514 4.48602 20 10 20C15.514 20 20 15.514 20 10C20 4.48602 15.514 0 10 0ZM12.4869 10.3521H10.86C10.86 12.9513 10.86 16.1516 10.86 16.1516H8.44921C8.44921 16.1516 8.44921 12.9824 8.44921 10.3521H7.30323V8.30259H8.44921V6.97696C8.44921 6.02755 8.90035 4.54403 10.8821 4.54403L12.6678 4.55087V6.54032C12.6678 6.54032 11.5822 6.54032 11.3711 6.54032C11.1601 6.54032 10.8604 6.64586 10.8604 7.09861V8.30299H12.6972L12.4869 10.3521Z" fill="white"/>
</svg>
