<svg width="20" height="20" viewBox="0 0 20 20" fill="none" xmlns="http://www.w3.org/2000/svg">
<path id="Vector" opacity="0.3" d="M10 0C4.48602 0 0 4.48602 0 10C0 15.514 4.48602 20 10 20C15.514 20 20 15.514 20 10C20 4.48602 15.514 0 10 0ZM13.3803 14.7664C12.9167 14.9847 12.4958 15.1394 12.1183 15.2268C11.7413 15.3142 11.3349 15.3593 10.8966 15.3593C10.3996 15.3593 10.1059 15.2965 9.72488 15.1712C9.34262 15.0451 9.01676 14.8651 8.74728 14.6343C8.4766 14.4018 8.2905 14.1545 8.18618 13.8935C8.08185 13.6313 8.02949 13.2518 8.02949 12.7544V8.94143H6.552V7.40111C6.97897 7.26255 7.47402 7.06397 7.77814 6.80496C8.08346 6.54516 8.32796 6.23459 8.51124 5.87126C8.69693 5.50914 8.82341 5.04632 8.8931 4.48643H10.4395V7.00032H12.9534V8.94184H10.4395V11.7292C10.4395 12.3604 10.431 12.7246 10.4983 12.903C10.5647 13.0806 10.7311 13.2655 10.9119 13.3719C11.1536 13.5165 11.4275 13.5886 11.7369 13.5886C12.2875 13.5886 12.8353 13.4101 13.3799 13.052L13.3803 14.7664Z" fill="white"/>
</svg>
